<mxfile host="app.diagrams.net" agent="Mozilla/5.0 (Windows NT 10.0; Win64; x64) AppleWebKit/537.36 (KHTML, like Gecko) Chrome/128.0.0.0 Safari/537.36" version="24.7.13">
  <diagram id="Ht1M8jgEwFfnCIfOTk4-" name="Page-1">
    <mxGraphModel dx="1034" dy="1213" grid="1" gridSize="10" guides="1" tooltips="1" connect="1" arrows="1" fold="1" page="1" pageScale="1" pageWidth="1169" pageHeight="827" math="0" shadow="0">
      <root>
        <mxCell id="0" />
        <mxCell id="1" parent="0" />
        <mxCell id="UEzPUAAOIrF-is8g5C7q-154" value="AWS Cloud" style="points=[[0,0],[0.25,0],[0.5,0],[0.75,0],[1,0],[1,0.25],[1,0.5],[1,0.75],[1,1],[0.75,1],[0.5,1],[0.25,1],[0,1],[0,0.75],[0,0.5],[0,0.25]];outlineConnect=0;gradientColor=none;html=1;whiteSpace=wrap;fontSize=12;fontStyle=0;shape=mxgraph.aws4.group;grIcon=mxgraph.aws4.group_aws_cloud_alt;strokeColor=#232F3E;fillColor=none;verticalAlign=top;align=left;spacingLeft=30;fontColor=#232F3E;dashed=0;labelBackgroundColor=#ffffff;container=1;pointerEvents=0;collapsible=0;recursiveResize=0;" parent="1" vertex="1">
          <mxGeometry x="230" y="-800" width="580" height="430" as="geometry" />
        </mxCell>
        <mxCell id="THMmlgjIWGHWH_QUGkb_-8" style="edgeStyle=orthogonalEdgeStyle;rounded=0;orthogonalLoop=1;jettySize=auto;html=1;startArrow=none;startFill=0;endArrow=open;endFill=0;strokeColor=#808080;strokeWidth=2;" parent="UEzPUAAOIrF-is8g5C7q-154" source="0qYSSz2mVr8TLpbA-E0x-16" target="0qYSSz2mVr8TLpbA-E0x-15" edge="1">
          <mxGeometry relative="1" as="geometry">
            <Array as="points">
              <mxPoint x="90" y="208" />
            </Array>
            <mxPoint x="90" y="121" as="sourcePoint" />
            <mxPoint x="160" y="208" as="targetPoint" />
          </mxGeometry>
        </mxCell>
        <mxCell id="0qYSSz2mVr8TLpbA-E0x-8" style="edgeStyle=orthogonalEdgeStyle;rounded=0;orthogonalLoop=1;jettySize=auto;html=1;startArrow=none;startFill=0;endArrow=open;endFill=0;strokeColor=#808080;strokeWidth=2;" edge="1" parent="UEzPUAAOIrF-is8g5C7q-154" source="0qYSSz2mVr8TLpbA-E0x-15" target="0qYSSz2mVr8TLpbA-E0x-18">
          <mxGeometry relative="1" as="geometry">
            <Array as="points">
              <mxPoint x="290" y="218" />
              <mxPoint x="290" y="218" />
            </Array>
            <mxPoint x="240" y="218" as="sourcePoint" />
            <mxPoint x="440" y="225" as="targetPoint" />
          </mxGeometry>
        </mxCell>
        <mxCell id="0qYSSz2mVr8TLpbA-E0x-10" style="edgeStyle=orthogonalEdgeStyle;rounded=0;orthogonalLoop=1;jettySize=auto;html=1;startArrow=none;startFill=0;endArrow=open;endFill=0;strokeColor=#808080;strokeWidth=2;" edge="1" parent="UEzPUAAOIrF-is8g5C7q-154" source="0qYSSz2mVr8TLpbA-E0x-15" target="0qYSSz2mVr8TLpbA-E0x-19">
          <mxGeometry relative="1" as="geometry">
            <Array as="points">
              <mxPoint x="320" y="198" />
              <mxPoint x="320" y="108" />
            </Array>
            <mxPoint x="240" y="198" as="sourcePoint" />
            <mxPoint x="440" y="108" as="targetPoint" />
          </mxGeometry>
        </mxCell>
        <mxCell id="0qYSSz2mVr8TLpbA-E0x-11" value="Open Search" style="sketch=0;outlineConnect=0;fontColor=#232F3E;gradientColor=none;fillColor=#8C4FFF;strokeColor=none;dashed=0;verticalLabelPosition=bottom;verticalAlign=top;align=center;html=1;fontSize=12;fontStyle=0;aspect=fixed;pointerEvents=1;shape=mxgraph.aws4.opensearch_ingestion;" vertex="1" parent="UEzPUAAOIrF-is8g5C7q-154">
          <mxGeometry x="450" y="295" width="78" height="78" as="geometry" />
        </mxCell>
        <mxCell id="0qYSSz2mVr8TLpbA-E0x-15" value="DMS" style="sketch=0;points=[[0,0,0],[0.25,0,0],[0.5,0,0],[0.75,0,0],[1,0,0],[0,1,0],[0.25,1,0],[0.5,1,0],[0.75,1,0],[1,1,0],[0,0.25,0],[0,0.5,0],[0,0.75,0],[1,0.25,0],[1,0.5,0],[1,0.75,0]];outlineConnect=0;fontColor=#232F3E;fillColor=#C925D1;strokeColor=#ffffff;dashed=0;verticalLabelPosition=bottom;verticalAlign=top;align=center;html=1;fontSize=12;fontStyle=0;aspect=fixed;shape=mxgraph.aws4.resourceIcon;resIcon=mxgraph.aws4.database_migration_service;" vertex="1" parent="UEzPUAAOIrF-is8g5C7q-154">
          <mxGeometry x="160" y="175" width="78" height="78" as="geometry" />
        </mxCell>
        <mxCell id="0qYSSz2mVr8TLpbA-E0x-16" value="EC2&amp;nbsp; &amp;nbsp;" style="sketch=0;points=[[0,0,0],[0.25,0,0],[0.5,0,0],[0.75,0,0],[1,0,0],[0,1,0],[0.25,1,0],[0.5,1,0],[0.75,1,0],[1,1,0],[0,0.25,0],[0,0.5,0],[0,0.75,0],[1,0.25,0],[1,0.5,0],[1,0.75,0]];outlineConnect=0;fontColor=#232F3E;fillColor=#ED7100;strokeColor=#ffffff;dashed=0;verticalLabelPosition=bottom;verticalAlign=top;align=center;html=1;fontSize=12;fontStyle=0;aspect=fixed;shape=mxgraph.aws4.resourceIcon;resIcon=mxgraph.aws4.ec2;" vertex="1" parent="UEzPUAAOIrF-is8g5C7q-154">
          <mxGeometry x="40" y="35.5" width="78" height="78" as="geometry" />
        </mxCell>
        <mxCell id="0qYSSz2mVr8TLpbA-E0x-17" style="edgeStyle=orthogonalEdgeStyle;rounded=0;orthogonalLoop=1;jettySize=auto;html=1;startArrow=none;startFill=0;endArrow=open;endFill=0;strokeColor=#808080;strokeWidth=2;" edge="1" parent="UEzPUAAOIrF-is8g5C7q-154" source="0qYSSz2mVr8TLpbA-E0x-15" target="0qYSSz2mVr8TLpbA-E0x-11">
          <mxGeometry relative="1" as="geometry">
            <Array as="points">
              <mxPoint x="320" y="238" />
              <mxPoint x="320" y="334" />
            </Array>
            <mxPoint x="212.5" y="308" as="sourcePoint" />
            <mxPoint x="367.5" y="308" as="targetPoint" />
          </mxGeometry>
        </mxCell>
        <mxCell id="0qYSSz2mVr8TLpbA-E0x-18" value="RDS" style="sketch=0;points=[[0,0,0],[0.25,0,0],[0.5,0,0],[0.75,0,0],[1,0,0],[0,1,0],[0.25,1,0],[0.5,1,0],[0.75,1,0],[1,1,0],[0,0.25,0],[0,0.5,0],[0,0.75,0],[1,0.25,0],[1,0.5,0],[1,0.75,0]];outlineConnect=0;fontColor=#232F3E;fillColor=#C925D1;strokeColor=#ffffff;dashed=0;verticalLabelPosition=bottom;verticalAlign=top;align=center;html=1;fontSize=12;fontStyle=0;aspect=fixed;shape=mxgraph.aws4.resourceIcon;resIcon=mxgraph.aws4.rds;" vertex="1" parent="UEzPUAAOIrF-is8g5C7q-154">
          <mxGeometry x="440" y="179" width="78" height="78" as="geometry" />
        </mxCell>
        <mxCell id="0qYSSz2mVr8TLpbA-E0x-19" value="S3" style="sketch=0;points=[[0,0,0],[0.25,0,0],[0.5,0,0],[0.75,0,0],[1,0,0],[0,1,0],[0.25,1,0],[0.5,1,0],[0.75,1,0],[1,1,0],[0,0.25,0],[0,0.5,0],[0,0.75,0],[1,0.25,0],[1,0.5,0],[1,0.75,0]];outlineConnect=0;fontColor=#232F3E;fillColor=#7AA116;strokeColor=#ffffff;dashed=0;verticalLabelPosition=bottom;verticalAlign=top;align=center;html=1;fontSize=12;fontStyle=0;aspect=fixed;shape=mxgraph.aws4.resourceIcon;resIcon=mxgraph.aws4.s3;" vertex="1" parent="UEzPUAAOIrF-is8g5C7q-154">
          <mxGeometry x="440" y="58" width="78" height="78" as="geometry" />
        </mxCell>
        <mxCell id="THMmlgjIWGHWH_QUGkb_-13" value="" style="verticalLabelPosition=bottom;html=1;verticalAlign=top;align=center;strokeColor=none;fillColor=#00BEF2;shape=mxgraph.azure.user;" parent="1" vertex="1">
          <mxGeometry x="90" y="-602" width="20" height="20" as="geometry" />
        </mxCell>
        <mxCell id="R009RjGv3hti7VilJgEY-10" value="" style="edgeStyle=orthogonalEdgeStyle;rounded=0;orthogonalLoop=1;jettySize=auto;html=1;startArrow=none;startFill=0;endArrow=open;endFill=0;strokeColor=#808080;strokeWidth=2;" parent="1" source="0qYSSz2mVr8TLpbA-E0x-13" target="0qYSSz2mVr8TLpbA-E0x-15" edge="1">
          <mxGeometry relative="1" as="geometry">
            <Array as="points">
              <mxPoint x="340" y="-565" />
              <mxPoint x="340" y="-565" />
            </Array>
            <mxPoint x="170" y="-565" as="sourcePoint" />
            <mxPoint x="390" y="-565" as="targetPoint" />
          </mxGeometry>
        </mxCell>
        <mxCell id="0qYSSz2mVr8TLpbA-E0x-13" value="" style="sketch=0;pointerEvents=1;shadow=0;dashed=0;html=1;strokeColor=none;fillColor=#505050;labelPosition=center;verticalLabelPosition=bottom;verticalAlign=top;outlineConnect=0;align=center;shape=mxgraph.office.servers.sql_server;" vertex="1" parent="1">
          <mxGeometry x="116" y="-615" width="70" height="100" as="geometry" />
        </mxCell>
      </root>
    </mxGraphModel>
  </diagram>
</mxfile>
